<svg version="1.2" xmlns="http://www.w3.org/2000/svg" viewBox="0 0 1000 100" width="1000" height="100">
	<style>
		.s0 { fill: #010f51 } 
	</style>
	<path class="s0" d="m1000 100.49v-60c-9 0-18 3-25 10-13 14-36 14-50 0-14-14-36-14-50 0-13 14-36 14-50 0-14-14-36-14-50 0-13 14-36 14-50 0-14-14-36-14-50 0-13 14-36 14-50 0-14-14-36-14-50 0-13 14-36 14-50 0-14-14-36-14-50 0-13 14-36 14-50 0-14-14-36-14-50 0-13 14-36 14-50 0-14-14-36-14-50 0-13 14-36 14-50 0-14-14-36-14-50 0-13 14-36 14-50 0-14-14-37-13-50 0-14 14-37 14-50 0-7-7-16-10-25-10v60z"/>
</svg>